<?xml version="1.0" encoding="iso-8859-1"?>
<!-- Generator: Adobe Illustrator 19.0.0, SVG Export Plug-In . SVG Version: 6.00 Build 0)  -->
<svg version="1.1" id="Layer_1" xmlns="http://www.w3.org/2000/svg" xmlns:xlink="http://www.w3.org/1999/xlink" x="0px" y="0px"
	 viewBox="0 0 512.005 512.005" style="enable-background:new 0 0 512.005 512.005;" xml:space="preserve">
<path style="fill:#E2E7F0;" d="M431.939,145.417c0-0.48,0-0.96,0-1.44c-0.072-17.67-14.454-31.939-32.131-31.86
	c-5.823,0.024-11.534,1.64-16.502,4.663c-23.917-57.032-89.539-83.884-146.579-59.968c-26.044,10.926-47.001,31.284-58.672,57.008
	c-29.916-18.821-69.422-9.823-88.236,20.085c-6.423,10.207-9.831,22.021-9.831,34.067c0.016,2.672,0.208,5.343,0.56,7.999h-0.56
	C35.811,175.973,0,211.784,0,255.962s35.811,79.989,79.989,79.989c2.72,0,5.359,0,7.999-0.4v0.4h327.954
	c53.009-0.304,95.739-43.53,95.427-96.538C511.104,192.994,477.661,153.424,431.939,145.417z"/>
<path style="fill:#C9D5E3;" d="M503.529,200.689c-0.928-2.672-3.847-4.087-6.519-3.16c-2.672,0.928-4.087,3.847-3.16,6.519
	c11.03,51.849-22.069,102.826-73.918,113.856c-2.008,0.424-4.039,0.792-6.071,1.088c-14.238,2-58.792,2-92.867,1.6
	c-13.254-0.2-23.829-11.102-23.629-24.357c0.032-2.376,0.424-4.735,1.152-6.999c0.424-1.544,0.8-3.096,1.12-4.639
	c1.896-8.815,8.319-15.966,16.878-18.797c32.179-11.206,57.616-36.291,69.27-68.31c4.151-10.862,12.958-19.285,23.997-22.957
	c11.654-3.863,20.189-13.878,22.157-25.996c2-14.102-5.567-27.836-18.557-33.675c7.159,16.158-0.128,35.059-16.286,42.218
	c-1.664,0.736-3.392,1.336-5.151,1.776c-0.128-20.477-5.911-40.514-16.718-57.912c-2.896-4.807-9.135-6.359-13.942-3.464
	c-3.711,2.24-5.599,6.583-4.695,10.822c15.302,59.928-20.877,120.903-80.797,136.205c-2.72,0.696-5.463,1.288-8.231,1.776
	c-19.245,3.416-39.059,1.704-57.432-4.959c-1.24-0.464-2.624,0.168-3.088,1.408c-0.336,0.904-0.096,1.928,0.608,2.592
	c9.087,7.711,19.349,13.918,30.396,18.397c14.798,5.831,22.061,22.549,16.23,37.347c-3.448,8.743-10.934,15.254-20.069,17.446h-0.56
	c-6.255,0.904-12.558,1.352-18.877,1.36h-39.994c-13.246-0.312-23.741-11.302-23.429-24.557c0.072-3.176,0.776-6.303,2.072-9.199
	c2.512-5.823,4.367-11.918,5.519-18.157v-0.4c4.255-20.709,14.718-39.626,29.996-54.232c9.135-9.039,15.302-20.645,17.678-33.275
	c1.672-8.399,1.672-17.038,0-25.436c-0.8-4.031-4.719-6.647-8.751-5.839c-3.296,0.656-5.743,3.448-5.967,6.799
	c-0.176,3.2-0.576,6.375-1.2,9.519c-5.063,24.357-23.781,43.578-47.993,49.273c-13.15,3.024-26.908,1.848-39.354-3.36
	c-1.144-0.664-2.616-0.28-3.28,0.864c-0.616,1.056-0.336,2.408,0.64,3.136c6.535,5.999,14.238,10.575,22.637,13.438
	c14.142,4.383,22.101,19.341,17.837,33.515v0.72c-8.303,27.42-30.476,48.409-58.312,55.192c-17.502,4.095-35.875,2.184-52.153-5.439
	c-1.24-0.464-2.624,0.16-3.088,1.4c-0.312,0.832-0.144,1.776,0.448,2.44c14.374,12.59,32.803,19.573,51.913,19.677h335.953
	c4.839,0.032,9.679-0.288,14.478-0.96c52.409-7.959,88.444-56.904,80.485-109.313C509.592,217.055,507.113,208.648,503.529,200.689z
	"/>
<g>
	<path style="fill:#3689C9;" d="M255.964,343.949L255.964,343.949c4.415,0,7.999,3.583,7.999,7.999v79.989
		c0,4.415-3.583,7.999-7.999,7.999l0,0c-4.415,0-7.999-3.583-7.999-7.999v-79.989C247.965,347.533,251.549,343.949,255.964,343.949z
		"/>
	<path style="fill:#3689C9;" d="M335.953,391.942h-23.997v-39.994c0-4.415-3.584-7.999-7.999-7.999
		c-4.415,0-7.999,3.583-7.999,7.999v47.993c0,4.415,3.583,7.999,7.999,7.999h31.995c4.415,0,7.999-3.584,7.999-7.999
		C343.952,395.526,340.368,391.942,335.953,391.942z"/>
	<path style="fill:#3689C9;" d="M207.971,343.949c-4.415,0-7.999,3.583-7.999,7.999v39.994h-23.997
		c-4.415,0-7.999,3.583-7.999,7.999c0,4.415,3.583,7.999,7.999,7.999h31.995c4.415,0,7.999-3.584,7.999-7.999v-47.993
		C215.97,347.533,212.386,343.949,207.971,343.949z"/>
	<circle style="fill:#3689C9;" cx="255.964" cy="455.933" r="7.999"/>
	<circle style="fill:#3689C9;" cx="359.949" cy="399.941" r="7.999"/>
	<circle style="fill:#3689C9;" cx="151.979" cy="399.941" r="7.999"/>
</g>
<g>
	<path style="fill:#1470B8;" d="M255.964,439.936c4.415,0,7.999-3.583,7.999-7.999v-79.989c-4.415,0-7.999,3.583-7.999,7.999
		V439.936z"/>
	<path style="fill:#1470B8;" d="M343.952,399.941h-47.993c0,4.415,3.583,7.999,7.999,7.999h31.995
		C340.368,407.94,343.952,404.365,343.952,399.941z"/>
	<path style="fill:#1470B8;" d="M303.957,359.947v31.996h7.999v-39.994C307.541,351.948,303.957,355.532,303.957,359.947z"/>
	<path style="fill:#1470B8;" d="M207.971,359.947v39.994h-39.994c0,4.415,3.583,7.999,7.999,7.999h31.995
		c4.415,0,7.999-3.584,7.999-7.999v-47.993C211.554,351.948,207.971,355.532,207.971,359.947z"/>
	<path style="fill:#1470B8;" d="M263.963,455.933c0-4.415-3.583-7.999-7.999-7.999v15.998
		C260.379,463.932,263.963,460.357,263.963,455.933z"/>
	<path style="fill:#1470B8;" d="M367.948,399.941c0-4.415-3.584-7.999-7.999-7.999v15.998
		C364.365,407.94,367.948,404.365,367.948,399.941z"/>
	<path style="fill:#1470B8;" d="M159.977,399.941c0-4.415-3.583-7.999-7.999-7.999v15.998
		C156.394,407.94,159.977,404.365,159.977,399.941z"/>
</g>
<g>
</g>
<g>
</g>
<g>
</g>
<g>
</g>
<g>
</g>
<g>
</g>
<g>
</g>
<g>
</g>
<g>
</g>
<g>
</g>
<g>
</g>
<g>
</g>
<g>
</g>
<g>
</g>
<g>
</g>
</svg>
